<?xml version="1.0" encoding="UTF-8" standalone="no"?>
<!DOCTYPE svg PUBLIC "-//W3C//DTD SVG 1.1//EN"
 "http://www.w3.org/Graphics/SVG/1.1/DTD/svg11.dtd">
<!-- Generated by graphviz version 2.47.0 (20210316.0004)
 -->
<!-- Title: dependencies Pages: 1 -->
<svg width="807pt" height="417pt"
 viewBox="0.00 0.00 807.00 417.00" xmlns="http://www.w3.org/2000/svg" xmlns:xlink="http://www.w3.org/1999/xlink">
<g id="graph0" class="graph" transform="scale(1 1) rotate(0) translate(4 413)">
<title>dependencies</title>
<polygon fill="white" stroke="transparent" points="-4,4 -4,-413 803,-413 803,4 -4,4"/>
<text text-anchor="start" x="378.51" y="-42.4" font-family="Times-12" font-weight="bold" font-size="14.00">Legend</text>
<polygon fill="#ffffb3" stroke="transparent" points="165.5,-10 165.5,-30 185.5,-30 185.5,-10 165.5,-10"/>
<text text-anchor="start" x="189.13" y="-15.4" font-family="Times-12" font-size="14.00"> &#160;Declarations</text>
<polygon fill="#8dd3c7" stroke="transparent" points="278.5,-10 278.5,-30 298.5,-30 298.5,-10 278.5,-10"/>
<text text-anchor="start" x="302.23" y="-15.4" font-family="Times-12" font-size="14.00"> &#160;Module</text>
<polygon fill="#80b1d3" stroke="transparent" points="364.5,-10 364.5,-30 384.5,-30 384.5,-10 364.5,-10"/>
<text text-anchor="start" x="388.28" y="-15.4" font-family="Times-12" font-size="14.00"> &#160;Bootstrap</text>
<polygon fill="#fdb462" stroke="transparent" points="461.5,-10 461.5,-30 481.5,-30 481.5,-10 461.5,-10"/>
<text text-anchor="start" x="485.17" y="-15.4" font-family="Times-12" font-size="14.00"> &#160;Providers</text>
<polygon fill="#fb8072" stroke="transparent" points="557.5,-10 557.5,-30 577.5,-30 577.5,-10 557.5,-10"/>
<text text-anchor="start" x="581.23" y="-15.4" font-family="Times-12" font-size="14.00"> &#160;Exports</text>
<g id="clust1" class="cluster">
<title>cluster_AppModule</title>
<polygon fill="none" stroke="black" stroke-dasharray="1,5" points="178,-203 178,-401 585,-401 585,-203 178,-203"/>
</g>
<g id="clust2" class="cluster">
<title>cluster_AppModule_declarations</title>
<polygon fill="none" stroke="black" points="455,-211 455,-263 577,-263 577,-211 455,-211"/>
</g>
<g id="clust4" class="cluster">
<title>cluster_AppModule_imports</title>
<polygon fill="none" stroke="black" points="186,-211 186,-263 447,-263 447,-211 186,-211"/>
</g>
<g id="clust6" class="cluster">
<title>cluster_AppModule_bootstrap</title>
<polygon fill="none" stroke="black" points="313,-341 313,-393 437,-393 437,-341 313,-341"/>
</g>
<g id="clust14" class="cluster">
<title>cluster_ComponentsModule</title>
<polygon fill="none" stroke="black" stroke-dasharray="1,5" points="593,-70 593,-271 791,-271 791,-70 593,-70"/>
</g>
<g id="clust15" class="cluster">
<title>cluster_ComponentsModule_declarations</title>
<polygon fill="none" stroke="black" points="603,-78 603,-130 781,-130 781,-78 603,-78"/>
</g>
<g id="clust18" class="cluster">
<title>cluster_ComponentsModule_exports</title>
<polygon fill="none" stroke="black" points="601,-211 601,-263 783,-263 783,-211 601,-211"/>
</g>
<g id="clust21" class="cluster">
<title>cluster_PagesModule</title>
<polygon fill="none" stroke="black" stroke-dasharray="1,5" points="8,-70 8,-195 450,-195 450,-70 8,-70"/>
</g>
<g id="clust22" class="cluster">
<title>cluster_PagesModule_declarations</title>
<polygon fill="none" stroke="black" points="178,-78 178,-130 442,-130 442,-78 178,-78"/>
</g>
<g id="clust25" class="cluster">
<title>cluster_PagesModule_imports</title>
<polygon fill="none" stroke="black" points="16,-78 16,-130 170,-130 170,-78 16,-78"/>
</g>
<!-- AppComponent -->
<g id="node1" class="node">
<title>AppComponent</title>
<polygon fill="#ffffb3" stroke="black" points="568.94,-255 463.06,-255 463.06,-219 568.94,-219 568.94,-255"/>
<text text-anchor="middle" x="516" y="-232.8" font-family="Times,serif" font-size="14.00">AppComponent</text>
</g>
<!-- AppModule -->
<g id="node2" class="node">
<title>AppModule</title>
<polygon fill="#8dd3c7" stroke="black" points="416.66,-320 413.66,-324 392.66,-324 389.66,-320 333.34,-320 333.34,-284 416.66,-284 416.66,-320"/>
<text text-anchor="middle" x="375" y="-297.8" font-family="Times,serif" font-size="14.00">AppModule</text>
</g>
<!-- AppComponent&#45;&gt;AppModule -->
<g id="edge1" class="edge">
<title>AppComponent&#45;&gt;AppModule</title>
<path fill="none" stroke="black" d="M516,-255.11C516,-274.34 516,-302 516,-302 516,-302 426.92,-302 426.92,-302"/>
<polygon fill="black" stroke="black" points="426.92,-298.5 416.92,-302 426.92,-305.5 426.92,-298.5"/>
</g>
<!-- AppComponent  -->
<g id="node5" class="node">
<title>AppComponent </title>
<polygon fill="#80b1d3" stroke="black" points="429.44,-385 320.56,-385 320.56,-349 429.44,-349 429.44,-385"/>
<text text-anchor="middle" x="375" y="-362.8" font-family="Times,serif" font-size="14.00">AppComponent </text>
</g>
<!-- AppModule&#45;&gt;AppComponent  -->
<g id="edge4" class="edge">
<title>AppModule&#45;&gt;AppComponent </title>
<path fill="none" stroke="black" stroke-dasharray="1,5" d="M375,-320.11C375,-320.11 375,-338.99 375,-338.99"/>
<polygon fill="black" stroke="black" points="371.5,-338.99 375,-348.99 378.5,-338.99 371.5,-338.99"/>
</g>
<!-- AppRoutingModule -->
<g id="node3" class="node">
<title>AppRoutingModule</title>
<polygon fill="#8dd3c7" stroke="black" points="439.27,-255 436.27,-259 415.27,-259 412.27,-255 310.73,-255 310.73,-219 439.27,-219 439.27,-255"/>
<text text-anchor="middle" x="375" y="-232.8" font-family="Times,serif" font-size="14.00">AppRoutingModule</text>
</g>
<!-- AppRoutingModule&#45;&gt;AppModule -->
<g id="edge2" class="edge">
<title>AppRoutingModule&#45;&gt;AppModule</title>
<path fill="none" stroke="black" d="M375,-255.11C375,-255.11 375,-273.99 375,-273.99"/>
<polygon fill="black" stroke="black" points="371.5,-273.99 375,-283.99 378.5,-273.99 371.5,-273.99"/>
</g>
<!-- SharedModule -->
<g id="node4" class="node">
<title>SharedModule</title>
<polygon fill="#8dd3c7" stroke="black" points="292.42,-255 289.42,-259 268.42,-259 265.42,-255 193.58,-255 193.58,-219 292.42,-219 292.42,-255"/>
<text text-anchor="middle" x="243" y="-232.8" font-family="Times,serif" font-size="14.00">SharedModule</text>
</g>
<!-- SharedModule&#45;&gt;AppModule -->
<g id="edge3" class="edge">
<title>SharedModule&#45;&gt;AppModule</title>
<path fill="none" stroke="black" d="M243,-255.11C243,-274.34 243,-302 243,-302 243,-302 323.23,-302 323.23,-302"/>
<polygon fill="black" stroke="black" points="323.23,-305.5 333.23,-302 323.23,-298.5 323.23,-305.5"/>
</g>
<!-- MessagesChatComponent -->
<g id="node6" class="node">
<title>MessagesChatComponent</title>
<polygon fill="#ffffb3" stroke="black" points="773.2,-122 610.8,-122 610.8,-86 773.2,-86 773.2,-122"/>
<text text-anchor="middle" x="692" y="-99.8" font-family="Times,serif" font-size="14.00">MessagesChatComponent</text>
</g>
<!-- ComponentsModule -->
<g id="node7" class="node">
<title>ComponentsModule</title>
<polygon fill="#8dd3c7" stroke="black" points="757.33,-187 754.33,-191 733.33,-191 730.33,-187 626.67,-187 626.67,-151 757.33,-151 757.33,-187"/>
<text text-anchor="middle" x="692" y="-164.8" font-family="Times,serif" font-size="14.00">ComponentsModule</text>
</g>
<!-- MessagesChatComponent&#45;&gt;ComponentsModule -->
<g id="edge5" class="edge">
<title>MessagesChatComponent&#45;&gt;ComponentsModule</title>
<path fill="none" stroke="black" d="M692,-122.11C692,-122.11 692,-140.99 692,-140.99"/>
<polygon fill="black" stroke="black" points="688.5,-140.99 692,-150.99 695.5,-140.99 688.5,-140.99"/>
</g>
<!-- MessagesChatComponent  -->
<g id="node8" class="node">
<title>MessagesChatComponent </title>
<polygon fill="#fb8072" stroke="black" points="774.7,-255 609.3,-255 609.3,-219 774.7,-219 774.7,-255"/>
<text text-anchor="middle" x="692" y="-232.8" font-family="Times,serif" font-size="14.00">MessagesChatComponent </text>
</g>
<!-- ComponentsModule&#45;&gt;MessagesChatComponent  -->
<g id="edge6" class="edge">
<title>ComponentsModule&#45;&gt;MessagesChatComponent </title>
<path fill="none" stroke="black" stroke-dasharray="5,2" d="M692,-187.22C692,-187.22 692,-208.73 692,-208.73"/>
<polygon fill="black" stroke="black" points="688.5,-208.73 692,-218.73 695.5,-208.73 688.5,-208.73"/>
</g>
<!-- HomeComponent -->
<g id="node9" class="node">
<title>HomeComponent</title>
<polygon fill="#ffffb3" stroke="black" points="433.55,-122 318.45,-122 318.45,-86 433.55,-86 433.55,-122"/>
<text text-anchor="middle" x="376" y="-99.8" font-family="Times,serif" font-size="14.00">HomeComponent</text>
</g>
<!-- PagesModule -->
<g id="node11" class="node">
<title>PagesModule</title>
<polygon fill="#8dd3c7" stroke="black" points="289.21,-187 286.21,-191 265.21,-191 262.21,-187 196.79,-187 196.79,-151 289.21,-151 289.21,-187"/>
<text text-anchor="middle" x="243" y="-164.8" font-family="Times,serif" font-size="14.00">PagesModule</text>
</g>
<!-- HomeComponent&#45;&gt;PagesModule -->
<g id="edge7" class="edge">
<title>HomeComponent&#45;&gt;PagesModule</title>
<path fill="none" stroke="black" d="M376,-122.11C376,-141.34 376,-169 376,-169 376,-169 299.14,-169 299.14,-169"/>
<polygon fill="black" stroke="black" points="299.14,-165.5 289.14,-169 299.14,-172.5 299.14,-165.5"/>
</g>
<!-- LoginComponent -->
<g id="node10" class="node">
<title>LoginComponent</title>
<polygon fill="#ffffb3" stroke="black" points="300.28,-122 185.72,-122 185.72,-86 300.28,-86 300.28,-122"/>
<text text-anchor="middle" x="243" y="-99.8" font-family="Times,serif" font-size="14.00">LoginComponent</text>
</g>
<!-- LoginComponent&#45;&gt;PagesModule -->
<g id="edge8" class="edge">
<title>LoginComponent&#45;&gt;PagesModule</title>
<path fill="none" stroke="black" d="M243,-122.11C243,-122.11 243,-140.99 243,-140.99"/>
<polygon fill="black" stroke="black" points="239.5,-140.99 243,-150.99 246.5,-140.99 239.5,-140.99"/>
</g>
<!-- PagesModule&#45;&gt;SharedModule -->
<g id="edge10" class="edge">
<title>PagesModule&#45;&gt;SharedModule</title>
<path fill="none" stroke="black" d="M243,-187.22C243,-187.22 243,-208.73 243,-208.73"/>
<polygon fill="black" stroke="black" points="239.5,-208.73 243,-218.73 246.5,-208.73 239.5,-208.73"/>
</g>
<!-- PagesRoutingModule -->
<g id="node12" class="node">
<title>PagesRoutingModule</title>
<polygon fill="#8dd3c7" stroke="black" points="161.82,-122 158.82,-126 137.82,-126 134.82,-122 24.18,-122 24.18,-86 161.82,-86 161.82,-122"/>
<text text-anchor="middle" x="93" y="-99.8" font-family="Times,serif" font-size="14.00">PagesRoutingModule</text>
</g>
<!-- PagesRoutingModule&#45;&gt;PagesModule -->
<g id="edge9" class="edge">
<title>PagesRoutingModule&#45;&gt;PagesModule</title>
<path fill="none" stroke="black" d="M93,-122.11C93,-141.34 93,-169 93,-169 93,-169 186.77,-169 186.77,-169"/>
<polygon fill="black" stroke="black" points="186.77,-172.5 196.77,-169 186.77,-165.5 186.77,-172.5"/>
</g>
</g>
</svg>
